<?xml version="1.0" standalone="no"?>
<!DOCTYPE svg PUBLIC "-//W3C//DTD SVG 20010904//EN"
 "http://www.w3.org/TR/2001/REC-SVG-20010904/DTD/svg10.dtd">
<svg version="1.0" xmlns="http://www.w3.org/2000/svg"
 width="192.000000pt" height="192.000000pt" viewBox="0 0 192.000000 192.000000"
 preserveAspectRatio="xMidYMid meet">
<metadata>
Created by potrace 1.14, written by Peter Selinger 2001-2017
</metadata>
<g transform="translate(0.000000,192.000000) scale(0.100000,-0.100000)"
fill="#000000" stroke="none">
<path d="M1120 1590 c0 -4 -9 -10 -19 -13 -26 -6 -79 -81 -91 -128 -12 -43
-15 -101 -7 -145 15 -87 90 -158 152 -144 6 1 16 3 23 4 28 5 78 55 102 102
20 40 24 64 25 129 0 90 -24 151 -71 182 -27 17 -114 28 -114 13z"/>
<path d="M700 1583 c-24 -9 -60 -45 -60 -60 0 -7 -4 -13 -9 -13 -14 0 -28 -70
-26 -130 2 -60 33 -140 68 -178 72 -77 171 -62 217 32 50 105 18 266 -67 330
-26 19 -96 30 -123 19z"/>
<path d="M1525 1351 c-52 -24 -101 -74 -131 -133 -13 -26 -21 -48 -18 -48 4 0
2 -6 -4 -12 -16 -21 -4 -107 19 -140 38 -52 99 -62 174 -27 45 21 125 101 125
123 0 7 5 17 12 24 13 13 17 28 22 82 5 53 -10 92 -46 123 -39 33 -93 36 -153
8z"/>
<path d="M282 1322 c-40 -41 -44 -49 -44 -104 2 -139 120 -273 237 -267 52 3
88 31 105 84 15 45 -1 175 -21 175 -5 0 -9 6 -9 14 0 16 -75 96 -107 113 -12
7 -45 15 -73 18 -49 5 -53 3 -88 -33z"/>
<path d="M905 1075 c-5 -1 -35 -10 -66 -19 -69 -21 -151 -73 -201 -127 -36
-39 -87 -119 -93 -143 -1 -6 -8 -24 -15 -41 -17 -39 -22 -205 -8 -247 19 -56
61 -106 113 -135 47 -26 57 -28 170 -27 66 0 197 3 292 6 197 6 238 19 297 91
43 54 54 90 54 170 -1 90 -37 223 -67 241 -6 4 -9 11 -6 16 3 4 -21 35 -53 68
-98 100 -194 143 -327 147 -44 2 -84 2 -90 0z"/>
</g>
</svg>
